<?xml version="1.0" encoding="utf-8"?>
<!-- Generator: Adobe Illustrator 24.3.0, SVG Export Plug-In . SVG Version: 6.00 Build 0)  -->
<svg version="1.1" id="Layer_1" xmlns="http://www.w3.org/2000/svg" xmlns:xlink="http://www.w3.org/1999/xlink" x="0px" y="0px"
	 viewBox="0 0 280 280" style="enable-background:new 0 0 280 280;" xml:space="preserve">
<style type="text/css">
	.st0{fill:#94D6DC;}
	.st1{fill:#051C2C;}
	.st2{fill:#C9E9EB;}
	.st3{fill:#1CB1D1;}
	.st4{fill:#48B9C7;}
	.st5{fill:#5BC6CC;}
	.st6{fill:#FF4438;}
</style>
<g>
	<g>
		<path class="st0" d="M87.3,55.3c-5.7-0.7-10.5-4.2-13.1-9c-2.6,4.8-7.4,8.3-13.1,9c0.9,6.4,6.5,11.3,13.1,11.3
			C80.8,66.6,86.4,61.7,87.3,55.3z"/>
		<path class="st1" d="M173.1,7.7v0.4l-15.9,20.7c0.6,0.4,1.2,0.9,1.9,1.3c4.3,3,8.3,5.8,16.5,5.8c8.2,0,12.2-2.8,16.5-5.8
			c4.6-3.2,9.4-6.6,18.9-6.6c4.1,0,7.4,0.6,10.1,1.6V7.7H173.1z"/>
		<path class="st2" d="M89.5,20.6c7.2,0,13.1-5.8,13.2-13H76.3C76.4,14.8,82.3,20.6,89.5,20.6z"/>
		<path class="st0" d="M102.6,40c-5.7-0.7-10.5-4.2-13.1-9c-2.6,4.8-7.4,8.3-13.1,9c0.9,6.4,6.5,11.3,13.1,11.3
			C96.2,51.3,101.7,46.4,102.6,40z"/>
		<path class="st3" d="M72,131.9c-5.7-0.7-10.5-4.2-13.1-9l0,0v20.3C65.5,143.2,71,138.3,72,131.9z"/>
		<path class="st4" d="M102.6,101.2c-5.7-0.7-10.5-4.2-13.1-9c-2.6,4.8-7.4,8.3-13.1,9c0.9,6.4,6.5,11.3,13.1,11.3
			C96.2,112.6,101.7,107.6,102.6,101.2z"/>
		<path class="st5" d="M102.6,70.6c-5.7-0.7-10.5-4.2-13.1-9c-2.6,4.8-7.4,8.3-13.1,9c0.9,6.4,6.5,11.3,13.1,11.3
			C96.2,81.9,101.7,77,102.6,70.6z"/>
		<path class="st1" d="M91.7,24.6C92.7,31,98.2,36,104.8,36c8.2,0,12.2-2.8,16.5-5.8c0.6-0.4,1.2-0.8,1.8-1.2l-16-21h-0.2
			C106.7,16.5,100.1,23.6,91.7,24.6z"/>
		<path class="st4" d="M72,101.2c-5.7-0.7-10.5-4.2-13.1-9l0,0v20.3C65.5,112.6,71,107.6,72,101.2z"/>
		<path class="st1" d="M140.2,88.9c-8.2,0-12.2,2.8-16.5,5.8c-2.3,1.6-4.6,3.2-7.5,4.5l24.1,31.8l24-31.8c-2.9-1.2-5.3-2.9-7.6-4.5
			C152.5,91.8,148.4,88.9,140.2,88.9z"/>
		<path class="st4" d="M61.1,116.6c0.9,6.4,6.5,11.3,13.1,11.3c6.6,0,12.2-4.9,13.1-11.3c-5.7-0.7-10.5-4.2-13.1-9
			C71.6,112.4,66.8,115.8,61.1,116.6z"/>
		<path class="st3" d="M89.5,143.2c6.6,0,12.2-4.9,13.1-11.3c-5.7-0.7-10.5-4.2-13.1-9c-2.6,4.8-7.4,8.3-13.1,9
			C77.4,138.3,82.9,143.2,89.5,143.2z"/>
		<path class="st3" d="M89.5,153.5c-2.6,4.8-7.4,8.3-13.1,9c0,0,0,0,0,0h26.2c0,0,0,0,0,0C97,161.8,92.1,158.3,89.5,153.5z"/>
		<path class="st4" d="M91.7,116.6c0.9,6.4,6.5,11.3,13.1,11.3c0.7,0,1.4,0,2-0.1v-26.5c0,0,0,0-0.1,0
			C105.9,109.2,99.6,115.6,91.7,116.6z"/>
		<path class="st3" d="M91.7,147.2c0.9,6.4,6.5,11.3,13.1,11.3c0.7,0,1.4,0,2-0.1V132c0,0,0,0-0.1,0
			C105.9,139.9,99.6,146.2,91.7,147.2z"/>
		<path class="st3" d="M58.9,153.5L58.9,153.5l0,9H72c0,0,0,0,0,0C66.3,161.8,61.5,158.3,58.9,153.5z"/>
		<path class="st5" d="M72,70.6c-5.7-0.7-10.5-4.2-13.1-9c0,0,0,0,0,0v20.3C65.5,81.9,71,77,72,70.6z"/>
		<path class="st0" d="M72,40c-5.7-0.7-10.5-4.2-13.1-9c0,0,0,0,0,0v20.3C65.5,51.3,71,46.4,72,40z"/>
		<path class="st5" d="M61.1,85.9c0.9,6.4,6.5,11.3,13.1,11.3c6.6,0,12.2-4.9,13.1-11.3c-5.7-0.7-10.5-4.2-13.1-9
			C71.6,81.7,66.8,85.2,61.1,85.9z"/>
		<path class="st2" d="M61.1,24.6C62,31,67.6,36,74.2,36c6.6,0,12.2-4.9,13.1-11.3c-5.7-0.7-10.5-4.2-13.1-9
			C71.6,20.5,66.8,23.9,61.1,24.6z"/>
		<path class="st3" d="M87.3,147.2c-5.7-0.7-10.5-4.2-13.1-9c-2.6,4.8-7.4,8.3-13.1,9c0.9,6.4,6.5,11.3,13.1,11.3
			C80.8,158.5,86.4,153.6,87.3,147.2z"/>
		<path class="st1" d="M194.5,33.5c-4.6,3.2-9.4,6.6-18.9,6.6c-9.5,0-14.3-3.4-18.9-6.6c-0.7-0.5-1.3-0.9-2-1.4l-14.6,19.1l-14.5-19
			c-0.6,0.4-1.3,0.9-1.9,1.3c-4.3,3-8.7,6.1-16.9,6.5c-0.9,7.9-7.2,14.2-15.1,15.2c0.9,6.4,6.5,11.3,13.1,11.3
			c8.2,0,12.2-2.8,16.5-5.8c4.6-3.2,9.4-6.6,18.9-6.6c9.5,0,14.3,3.4,18.9,6.6c4.3,3,8.3,5.8,16.5,5.8c8.2,0,12.2-2.8,16.5-5.8
			c4.6-3.2,9.4-6.6,18.9-6.6c4.1,0,7.4,0.6,10.1,1.6V29.6c-2.6-1.2-5.8-2-10.1-2C202.8,27.7,198.8,30.5,194.5,33.5z"/>
		<path class="st2" d="M72.1,7.7H58.9v13C66.1,20.6,72,14.8,72.1,7.7z"/>
		<path class="st1" d="M194.5,125.4c-4.6,3.2-9.4,6.6-18.9,6.6c-0.9,0-1.7,0-2.5-0.1v26.5c0.8,0.1,1.6,0.1,2.5,0.1
			c8.2,0,12.2-2.8,16.5-5.8c4.6-3.2,9.4-6.6,18.9-6.6c1.1,0,2.1,0.9,2.1,2.1c0,1.1-0.9,2.1-2.1,2.1c-8.2,0-12.2,2.8-16.5,5.8
			c-4.1,2.9-8.3,5.8-15.9,6.5h42.5v-41c-2.6-1.2-5.8-2-10.1-2C202.8,119.6,198.8,122.4,194.5,125.4z"/>
		<path class="st1" d="M194.5,94.8c-4.6,3.2-9.4,6.6-18.9,6.6c-0.9,0-1.7,0-2.5-0.1v26.5c0.8,0.1,1.6,0.1,2.5,0.1
			c8.2,0,12.2-2.8,16.5-5.8c4.6-3.2,9.4-6.6,18.9-6.6c4.1,0,7.4,0.6,10.1,1.6V90.9c-2.6-1.2-5.8-2-10.1-2
			C202.8,88.9,198.8,91.8,194.5,94.8z"/>
		<path class="st1" d="M194.5,64.1c-4.6,3.2-9.4,6.6-18.9,6.6c-9.5,0-14.3-3.4-18.9-6.6c-4.3-3-8.3-5.8-16.5-5.8s-12.2,2.8-16.5,5.8
			c-4.3,3-8.7,6.1-16.9,6.5c-0.9,7.9-7.2,14.2-15.1,15.2c0.9,6.4,6.5,11.3,13.1,11.3c0.7,0,1.4,0,2-0.1V86.9l6.8,8.9
			c3-1.1,5.3-2.7,7.7-4.4c4.6-3.2,9.4-6.6,18.9-6.6c9.5,0,14.3,3.4,18.9,6.6c2.4,1.7,4.7,3.3,7.8,4.4l6.2-8.3v9.6
			c0.8,0.1,1.6,0.1,2.5,0.1c8.2,0,12.2-2.8,16.5-5.8c4.6-3.2,9.4-6.6,18.9-6.6c4.1,0,7.4,0.6,10.1,1.6V60.3c-2.6-1.2-5.8-2-10.1-2
			C202.8,58.3,198.8,61.1,194.5,64.1z"/>
	</g>
	<g>
		<polygon class="st1" points="0,183.5 0,242.2 11.7,242.2 11.7,222.1 11.4,208.6 27.7,224.3 43.9,208.6 43.6,222.1 43.6,242.2 
			55.3,242.2 55.3,183.5 27.7,208.9 		"/>
		<path class="st1" d="M87.2,209.3L87.2,209.3c-2.2-2.8-5.3-5-9.6-5c-9.2,0-17.6,8.8-17.6,19.6c0,10.2,7.8,18.7,17.9,19.6l9.3-5
			l0.4,3.7h11v-36.6h-11L87.2,209.3z M87.1,227.8l-9.7,4.9c-3.5-1.1-6-4.6-6-8.8c0-5.1,3.7-9.1,8.2-9.1c4.5,0,8.2,4,8.2,9.1
			C87.8,225.3,87.6,226.6,87.1,227.8z"/>
		<path class="st1" d="M127.8,204.3h-1l-9.3,5l-0.4-3.7h-11v36.6h11.4v-21.8l9.6-4.9c3.3,0.1,5.4,2,5.4,8.1v18.7h11.4v-22.4
			C143.8,208.7,136.4,204.3,127.8,204.3z"/>
		<path class="st1" d="M170.8,243.5l9,4c-2,2.7-5.3,4.5-9,4.5c-4.9,0-9.5-3.3-10.6-7.6l23.3-12.2c1.3-2.1,3.1-8.3,2.3-13.1l3.4-1.9
			c1.6-0.9,2.5-2.5,2.5-4.3v0c0-3.8-4.1-6.2-7.4-4.2l-2.4,1.4c-4.6-5-12-7.3-19.5-4.8c-7.4,2.5-12.2,9.7-12.2,17.5
			c0.1,5.5,2.5,9.4,6.4,11.8l-7.3,3.8c-0.4,2.1-0.8,6.3,1.1,11v0.1c3.2,7.5,11.2,12.9,20.5,12.9c11.5,0,21.3-8.3,22-18.9H170.8z
			 M187.2,211.1c1,0,1.7,0.8,1.7,1.7c0,1-0.8,1.7-1.7,1.7c-1,0-1.7-0.8-1.7-1.7C185.5,211.8,186.3,211.1,187.2,211.1z M168.4,214.8
			c3.9,0,7,3.5,7,7.8c0,0.9-0.1,1.8-0.4,2.5l-8.5,4.4c-3-0.8-5.1-3.3-5.1-6.9C161.4,218.3,164.6,214.8,168.4,214.8z"/>
		<rect x="197.2" y="184.1" class="st1" width="11.4" height="58.1"/>
		<path class="st1" d="M240.4,209.3L240.4,209.3c-2.2-2.8-5.3-5-9.6-5c-9.2,0-17.6,8.8-17.6,19.6c0,10.2,7.8,18.7,17.9,19.6l9.3-5
			l0.4,3.7h11v-36.6h-11L240.4,209.3z M240.3,227.8l-9.7,4.9c-3.5-1.1-6-4.6-6-8.8c0-5.1,3.7-9.1,8.2-9.1c4.5,0,8.2,4,8.2,9.1
			C241,225.3,240.8,226.6,240.3,227.8z"/>
		<polygon class="st1" points="270.7,209.3 270.3,205.6 259.4,205.6 259.4,242.2 270.7,242.2 270.7,220.4 280,215.6 280,204.3 		"/>
	</g>
	<g>
		<path class="st6" d="M13.5,252.7c-1.5,2.3-3,4.6-4.5,6.9c-0.4,0.6-0.8,1.2-1.2,1.8c-0.5,0.8-1,1.6-1.5,2.4
			c-0.5,2.3-1.4,4.2-2.7,5.7c-0.1,0.1-0.2,0.1-0.3,0.1c-0.1,0-0.2-0.1-0.3-0.2c-0.1-0.1-0.1-0.2-0.1-0.4c0.3-0.9,0.6-1.8,1.1-2.7
			c0.4-0.9,0.9-1.8,1.5-2.6c0.4-1.6,0.5-3.1,0.3-4.6s-0.7-2.8-1.5-3.8c-0.8-1-2.1-1.6-3.8-1.6c-0.2,0-0.3-0.1-0.4-0.2
			C0,253.2,0,253.1,0,253s0.1-0.2,0.3-0.3c1.8-0.3,3.5-0.5,5.3-0.6c1.8-0.1,3.5-0.3,5.3-0.4c0.8,0,1.6-0.1,2.5-0.2
			c0.4-0.6,0.9-1.3,1.3-1.9c0.1-0.1,0.2-0.2,0.3-0.2c0.1,0,0.2,0.1,0.3,0.2c0.1,0.1,0.1,0.2,0,0.3c-0.3,0.4-0.5,0.7-0.8,1.1
			c-0.1,0.1-0.2,0.2-0.2,0.3c1.8,0,3.3-0.1,4.6-0.1s2.9,0,5,0c0.2,0,0.3,0.1,0.3,0.2c0.1,0.1,0.1,0.2,0,0.3
			c-0.1,0.1-0.2,0.2-0.3,0.2c-1.7,0.2-3.4,0.3-5.1,0.3C17,252.5,15.3,252.6,13.5,252.7z M6.7,261.8c0.1-0.1,0.1-0.2,0.2-0.3
			c0.3-0.5,0.7-1,1-1.5c1.5-2.4,3.1-4.8,4.7-7.2c-3.2,0.1-6.3,0.3-9.5,0.6c1,0.5,1.7,1.1,2.3,2c0.6,0.9,0.9,1.9,1.1,3
			C6.8,259.4,6.8,260.6,6.7,261.8z"/>
		<path class="st6" d="M17.6,259.3c0.1-0.1,0.2-0.1,0.3-0.1c0.1,0,0.2,0.1,0.2,0.2c0,0.1,0,0.2-0.1,0.3c-0.5,0.5-1.2,0.8-2,1.1
			c-0.8,0.3-1.6,0.3-2.3,0.1c-0.2,0.5-0.5,0.9-0.9,1.3c-0.4,0.4-0.8,0.6-1.4,0.8c-0.4,0.1-0.6,0-0.8-0.2s-0.3-0.5-0.4-0.8
			c-0.1-0.3,0-0.6,0-0.9c0.2-0.6,0.4-1,0.8-1.5c0.4-0.4,0.8-0.7,1.4-0.9c0,0,0.1,0,0.1-0.1c0,0,0,0,0.1,0c0,0,0,0,0,0c0,0,0,0,0.1,0
			c0,0,0,0,0.1,0c0.1,0,0.2,0,0.2,0c0.3,0,0.6,0.2,0.7,0.4c0.2,0.2,0.2,0.5,0.2,0.9c0.2,0.1,0.4,0.2,0.6,0.2c0.2,0,0.4,0.1,0.5,0.1
			C16.1,260.3,16.9,259.9,17.6,259.3z M11.4,262.1c0.3-0.1,0.6-0.3,0.9-0.5c0.3-0.3,0.5-0.5,0.6-0.8c0-0.1,0.1-0.2,0.1-0.3
			c-0.1-0.1-0.1-0.1-0.2-0.2c-0.1-0.1-0.1-0.3-0.1-0.4c0-0.1,0.1-0.2,0.2-0.3c0,0,0,0,0,0c-0.6,0.2-1.1,0.6-1.4,1.3
			c0,0,0,0.1-0.1,0.2c0,0.1-0.1,0.3-0.1,0.4c0,0.2,0,0.3,0,0.4C11.2,262.1,11.3,262.1,11.4,262.1z"/>
		<path class="st6" d="M40.5,253.5c0.1,0,0.2,0.1,0.2,0.2s0,0.2,0,0.3c-0.1,0.1-0.1,0.1-0.3,0.1c-0.6,0-1.3,0-1.9-0.1
			c-2.7-0.1-5.4-0.2-8.1-0.1c-1.5,2.1-3,4.2-4.4,6.3c-0.6,0.9-1.2,1.9-1.8,2.8c-0.7,1.1-1.4,2.1-2.1,3.1c-0.7,1-1.5,2-2.3,2.9
			c-0.1,0.1-0.2,0.1-0.3,0.1c-0.1,0-0.2-0.1-0.2-0.2c0-0.1-0.1-0.2,0-0.3c0.7-1.4,1.4-2.7,2.3-4c0.9-1.3,1.8-2.6,2.7-3.8
			c0.5-0.7,1.1-1.4,1.6-2.1c1.1-1.5,2.2-3,3.2-4.5l-0.1,0.1c-0.3,0.2-0.9,0.9-2,1.9c-1.1,1-2.3,2.1-3.7,3.3c-1.4,1.2-2.7,2.2-3.8,3
			c0.2,0.3,0.2,0.5,0.2,0.9c0,0.8-0.4,1.4-1,1.9c-0.3,0.2-0.7,0.5-1.2,0.7c-0.5,0.3-1,0.4-1.4,0.4c-0.5,0-0.8-0.2-1-0.8
			c-0.1-0.4,0-0.8,0.3-1.1c0.3-0.4,0.7-0.7,1.1-1.1c0.4-0.3,0.8-0.6,1.1-0.8c0.1,0,0.1-0.1,0.2-0.1c0,0-0.1-0.1-0.1-0.1
			c-0.2-0.2-0.3-0.5-0.5-0.7c-0.1-0.2-0.2-0.5-0.2-0.8c-0.1-0.6,0.1-1.1,0.5-1.5c0.4-0.4,0.8-0.7,1.3-0.8c0.2-0.1,0.4,0,0.5,0.1
			c0.1,0.1,0.2,0.3,0.2,0.4c0,0.2-0.1,0.3-0.2,0.5c-0.6,0.5-0.9,0.9-0.8,1.2c0,0.3,0.2,0.7,0.5,1c1.1-0.8,2.4-1.8,4.1-3.2
			c1.6-1.3,3.3-2.8,5.1-4.5c-1.6,0.1-3.3,0.3-5,0.6c-0.2,0-0.3,0-0.4-0.1c-0.1-0.1-0.1-0.2-0.1-0.4c0-0.1,0.1-0.2,0.3-0.3
			c2-0.3,4.1-0.6,6.2-0.7c1.3-1.2,2.5-2.5,3.6-3.8c0,0,0.1-0.1,0.1-0.1c0.1-0.1,0.1-0.1,0.2-0.2c0.1-0.1,0.2-0.2,0.4-0.2
			c0.1,0,0.3,0.1,0.3,0.2c0.1,0.1,0.1,0.2,0,0.4c-0.8,1-1.5,2.1-2.2,3.1c-0.1,0.2-0.3,0.4-0.4,0.6C34.3,252.8,37.4,252.9,40.5,253.5
			z M18.2,264.3c0.3-0.3,0.5-0.6,0.5-0.8c0-0.2,0-0.4-0.1-0.6c-0.4,0.3-0.8,0.6-1.2,0.9c0,0-0.1,0.1-0.1,0.1
			c-0.2,0.2-0.5,0.4-0.7,0.6c-0.5,0.6-0.5,0.7,0.2,0.6C17.4,265,17.9,264.7,18.2,264.3z"/>
		<path class="st6" d="M36.8,258.9c0.1,0,0.2,0,0.3,0.1c0.1,0.1,0.1,0.2,0.1,0.3s-0.1,0.2-0.1,0.2c-0.2,0.2-0.6,0.4-1.1,0.7
			s-1.1,0.6-1.7,0.9c-0.6,0.3-1.2,0.4-1.7,0.4c-0.5,0-0.7-0.3-0.7-0.8c0,0,0,0,0,0c-0.4,0.3-0.8,0.7-1.2,1.1
			c-0.4,0.4-0.9,0.7-1.3,0.9c-0.4,0.2-0.8,0.4-1.1,0.3c-0.3,0-0.6-0.3-0.7-0.7c-0.1-0.5,0-1,0.2-1.5c0.3-0.5,0.7-0.9,1.2-1.3
			c0.5-0.4,1-0.6,1.6-0.7c0.6-0.1,1.1,0,1.5,0.2c0.1,0.1,0.2,0.2,0.2,0.3c0,0,0.1,0,0.1-0.1c0,0,0.1-0.1,0.1-0.1
			c0.1,0,0.2-0.1,0.3,0c0.1,0,0.2,0.1,0.3,0.2c0.1,0.1,0.1,0.2,0,0.3c-0.2,0.4-0.1,0.7,0.1,0.8c0.2,0.1,0.5,0.1,0.9-0.1
			c0.4-0.1,0.8-0.3,1.2-0.5S36,259.3,36.8,258.9z M28.5,261.5c-0.1,0.2,0,0.4,0,0.4s0.2,0,0.4-0.2c0.2-0.1,0.6-0.4,1.1-0.8
			c0.5-0.4,0.9-0.7,1.2-1.1c-0.4-0.1-0.7-0.1-1.1,0c-0.4,0.1-0.7,0.4-1,0.7C28.7,260.9,28.6,261.2,28.5,261.5z"/>
		<path class="st6" d="M47.2,249.3c0.1-0.1,0.2-0.2,0.4-0.1c0.1,0,0.2,0.1,0.3,0.3c0.1,0.1,0,0.3-0.1,0.4c-2.1,2.6-3.9,5.3-5.6,8.1
			c-1.7,2.8-3.3,5.7-5,8.7c-0.1,0.2-0.2,0.5-0.3,0.7c-0.1,0.1-0.1,0.2-0.2,0.2s-0.2,0-0.3-0.1c-0.1-0.1-0.1-0.2-0.1-0.3
			c1.5-3.9,3.6-7.5,6-10.9c-1.1,1.2-2.3,2.5-3.5,3.7c0,0-0.1,0.1-0.1,0.2c-0.2,0.3-0.6,0.7-1.1,1.2c-0.5,0.5-1,0.9-1.5,1.1
			c-0.5,0.2-0.9,0.1-1.1-0.3c-0.2-0.6-0.2-1.2,0.3-1.8c0.4-0.6,1-1.1,1.7-1.4c0.7-0.3,1.4-0.4,2-0.2c0.5-0.6,1-1.1,1.5-1.7
			c0.7-0.7,1.3-1.5,2-2.2C44.1,252.9,45.7,251.1,47.2,249.3z M37.1,260.4c0.1-0.2,0.3-0.3,0.4-0.5c0.1-0.1,0.1-0.1,0.2-0.2
			c-0.2-0.1-0.5,0-0.7,0.1c-0.2,0.1-0.4,0.3-0.6,0.5c-0.2,0.2-0.3,0.4-0.3,0.5c0,0.1,0,0.2,0.2,0.1C36.5,261,36.7,260.8,37.1,260.4z
			"/>
		<path class="st6" d="M51.3,258.9c0.1,0,0.2,0,0.3,0.1c0.1,0.1,0.1,0.2,0.1,0.3c0,0.1-0.1,0.2-0.1,0.2c-0.2,0.2-0.6,0.4-1.1,0.7
			c-0.5,0.3-1.1,0.6-1.7,0.9c-0.6,0.3-1.2,0.4-1.7,0.4c-0.5,0-0.7-0.3-0.7-0.8c0,0,0,0,0,0c-0.4,0.3-0.8,0.7-1.2,1.1
			c-0.4,0.4-0.9,0.7-1.3,0.9c-0.4,0.2-0.8,0.4-1.1,0.3c-0.3,0-0.6-0.3-0.7-0.7c-0.1-0.5,0-1,0.2-1.5c0.3-0.5,0.7-0.9,1.2-1.3
			c0.5-0.4,1-0.6,1.6-0.7c0.6-0.1,1.1,0,1.5,0.2c0.1,0.1,0.2,0.2,0.2,0.3c0,0,0.1,0,0.1-0.1c0,0,0.1-0.1,0.1-0.1
			c0.1,0,0.2-0.1,0.3,0c0.1,0,0.2,0.1,0.3,0.2c0.1,0.1,0.1,0.2,0,0.3c-0.2,0.4-0.1,0.7,0.1,0.8c0.2,0.1,0.5,0.1,0.9-0.1
			c0.4-0.1,0.8-0.3,1.2-0.5C49.9,259.6,50.5,259.3,51.3,258.9z M43,261.5c-0.1,0.2,0,0.4,0,0.4c0.1,0,0.2,0,0.4-0.2
			c0.2-0.1,0.6-0.4,1.1-0.8c0.5-0.4,0.9-0.7,1.2-1.1c-0.4-0.1-0.7-0.1-1.1,0c-0.4,0.1-0.7,0.4-1,0.7C43.2,260.9,43,261.2,43,261.5z"
			/>
		<path class="st6" d="M57.8,259.8c-1,0.3-1.9,0.7-2.7,1.1s-1.7,0.9-2.5,1.5c0.2,0.3,0.2,0.5,0.2,0.9c0,0.8-0.4,1.4-1,1.9
			c-0.2,0.2-0.5,0.3-0.8,0.5c-0.3,0.2-0.7,0.4-1.1,0.5c-0.4,0.1-0.7,0.1-1,0.1c-0.3-0.1-0.5-0.3-0.6-0.7c-0.1-0.4,0-0.8,0.3-1.1
			c0.3-0.4,0.7-0.7,1.1-1.1c0.4-0.3,0.8-0.6,1.1-0.8c0.1,0,0.1-0.1,0.2-0.1c0,0-0.1-0.1-0.1-0.1c-0.2-0.2-0.3-0.5-0.5-0.7
			c-0.1-0.2-0.2-0.5-0.2-0.8c-0.1-0.6,0.1-1.1,0.5-1.5c0.4-0.4,0.8-0.7,1.3-0.8c0.2-0.1,0.4,0,0.5,0.1c0.1,0.1,0.2,0.3,0.2,0.4
			c0,0.2-0.1,0.3-0.2,0.5c-0.4,0.3-0.6,0.6-0.7,0.8c-0.1,0.2-0.1,0.5,0,0.7s0.2,0.4,0.4,0.7c1-0.6,1.9-1,2.7-1.4
			c0.9-0.4,1.8-0.7,2.9-1.1c0.1,0,0.2,0,0.3,0.1c0.1,0.1,0.1,0.2,0.1,0.3S58,259.8,57.8,259.8z M51.2,264.4c0.3-0.3,0.5-0.5,0.5-0.8
			c0-0.2,0-0.4-0.1-0.6c-0.4,0.3-0.8,0.6-1.2,0.9c0,0-0.1,0.1-0.1,0.1c-0.2,0.2-0.5,0.4-0.7,0.6c-0.5,0.5-0.4,0.7,0.2,0.5
			C50.4,264.9,50.9,264.7,51.2,264.4z"/>
		<path class="st6" d="M64.9,259.2c-0.1,0.2-0.4,0.6-0.8,1.3c-0.5,0.7-0.9,1.4-1.4,2.2c-0.3,0.4-0.5,0.8-0.7,1.1
			c-0.6,0.9-1.1,1.8-1.7,2.7c-0.6,1-1.2,1.9-1.8,2.9c-0.6,0.9-1.2,1.9-1.9,2.7c-0.1,0.1-0.2,0.2-0.3,0.1c-0.1,0-0.2-0.1-0.3-0.1
			c-0.1-0.1-0.1-0.2,0-0.3c0.7-1.4,1.5-2.8,2.3-4.1c0.9-1.3,1.7-2.7,2.6-4c0.6-0.8,1.1-1.7,1.7-2.5c-0.4,0.3-0.8,0.6-1.2,0.9
			s-0.8,0.5-1.1,0.6c-0.3,0.1-0.6,0.1-0.7-0.1c-0.3-0.2-0.3-0.6-0.3-0.9c0.1-0.4,0.3-0.7,0.5-1.1c0.3-0.4,0.5-0.7,0.8-1.1
			c0.3-0.3,0.5-0.6,0.7-0.7c0.1-0.1,0.3-0.1,0.4-0.1c0.1,0.1,0.2,0.1,0.3,0.3c0,0.1,0,0.3-0.1,0.4c-0.5,0.5-1,1-1.3,1.6
			c-0.2,0.3-0.2,0.5-0.2,0.6c0.1,0.1,0.2,0.1,0.4,0.1c0.2-0.1,0.4-0.2,0.7-0.4c0.9-0.8,1.8-1.6,2.7-2.4c0.1-0.1,0.2-0.1,0.3-0.1
			c0.1,0,0.2,0.1,0.2,0.2C64.9,259,64.9,259.1,64.9,259.2z"/>
		<path class="st6" d="M86.5,256.6c-1.5,0.3-3,0.4-4.5,0.5c-0.2,0-0.3,0-0.5,0c-2.2,4.2-4.6,8.3-7.3,12.2c-0.1,0.1-0.2,0.2-0.4,0.2
			c-0.1,0-0.3-0.1-0.3-0.2c-0.1-0.1-0.1-0.2,0-0.4c1.2-2.3,2.6-4.6,4-6.8c1-1.6,2-3.2,3-4.9c-0.6,0-1.2,0.1-1.9,0.2
			c-1.1,0.2-2.2,0.3-3.3,0.5c-1.4,1.8-2.9,3.7-4.3,5.6c-0.2,0.3-0.4,0.6-0.7,0.9c-0.1,0.1-0.2,0.2-0.3,0.1c-0.1,0-0.2-0.1-0.3-0.2
			s-0.1-0.2,0-0.3c0.1-0.2,0.4-0.5,0.7-1c0.8-1.2,2-2.8,3.5-4.8c-1.1,0.2-2.2,0.4-3.2,0.6c-0.2,0-0.3,0-0.4-0.1
			c-0.1-0.1-0.1-0.2-0.1-0.4c0-0.1,0.1-0.2,0.3-0.3c0.4-0.1,0.8-0.2,1.2-0.3c1-0.2,2-0.5,3-0.7c0.9-1.2,1.8-2.3,2.8-3.4
			c0.9-1.1,1.8-2,2.7-2.8c0.9-0.8,1.6-1.4,2.3-1.7c0.7-0.3,1.2-0.3,1.6,0.1c0.3,0.4,0.3,0.9,0.2,1.6c-0.2,0.7-0.5,1.5-0.8,2.2
			c-0.4,0.8-0.7,1.4-1,2c-0.1,0.3-0.2,0.5-0.3,0.6c0,0,0,0.1-0.1,0.1c0,0,0,0.1-0.1,0.1c1.5-0.1,2.9,0,4.3,0.2
			c0.1,0,0.2,0.1,0.2,0.1c0,0.1,0,0.1,0,0.2C86.7,256.6,86.6,256.6,86.5,256.6z M76.3,256.7c1.6-0.3,3.2-0.6,4.8-0.7
			c0.8-1.5,1.5-3,2.1-4.6c0.2-0.6,0.2-1,0-1c-0.2-0.1-0.5,0-0.9,0.2c-0.4,0.2-0.8,0.5-1.1,0.8c-0.4,0.3-0.6,0.5-0.8,0.7
			c-1.2,1.3-2.4,2.6-3.6,4c-0.1,0.1-0.2,0.3-0.3,0.4C76.5,256.5,76.4,256.6,76.3,256.7z"/>
		<path class="st6" d="M92.1,259.7c-0.7,0.5-1.4,1-2.1,1.4c-0.7,0.5-1.5,0.9-2.2,1.4c-0.3,0.2-0.6,0.4-1,0.6
			c-1.1,2.2-2.5,4.2-4.3,5.9c-0.2,0.2-0.3,0.3-0.5,0.6c-0.4,0.4-0.9,0.9-1.4,1.3c-0.5,0.5-1,0.8-1.6,1.1c-0.6,0.3-1.1,0.4-1.6,0.3
			c-0.1,0-0.2-0.1-0.2-0.2c-0.1-0.1-0.1-0.2-0.1-0.3c0-0.6,0.2-1.3,0.6-2c0.4-0.7,0.9-1.3,1.5-1.9c0.6-0.6,1.2-1.2,1.9-1.7
			c0.6-0.5,1.2-0.9,1.6-1.3c1.2-0.9,2.4-1.8,3.6-2.6c0-0.1,0.1-0.1,0.1-0.2c0.1-0.2,0.1-0.3,0.2-0.5c0.1-0.3,0.1-0.5-0.1-0.6
			c-0.1-0.1-0.4,0-0.6,0.1c-0.3,0.1-0.5,0.2-0.8,0.4c-0.3,0.1-0.5,0.3-0.6,0.3c-0.3,0.2-0.6,0.4-1.1,0.6c-0.4,0.2-0.8,0.4-1.2,0.5
			c-0.4,0.1-0.7,0-0.9-0.2c-0.2-0.2-0.2-0.7,0-1.3c0.2-0.7,0.7-1.3,1.3-1.8c0.6-0.5,1.3-0.8,2.1-1c0.8-0.2,1.5,0,2.1,0.4
			c0.2,0.1,0.2,0.3,0.3,0.4c0,0.2,0,0.3-0.2,0.4c0.3,0.1,0.5,0.3,0.6,0.6c0.1,0.3,0.1,0.6,0,1c0,0,0,0,0,0c0,0,0,0,0,0
			c1.5-0.9,3-1.7,4.5-2.3c0.1,0,0.2,0,0.2,0c0,0,0.1,0.1,0.1,0.2S92.2,259.6,92.1,259.7z M83.8,266.3c0.6-0.8,1.2-1.6,1.7-2.5
			c-1.3,0.8-2.6,1.7-3.7,2.7c-1.2,1-2.2,2.1-3,3.4c-0.3,0.6-0.4,0.9-0.3,0.9c0.1,0,0.4-0.1,0.8-0.3c0.4-0.2,0.8-0.5,1.2-0.8
			c0.4-0.3,0.7-0.5,0.8-0.7c0.5-0.4,0.9-0.9,1.3-1.3C83,267.3,83.4,266.8,83.8,266.3z M83.7,261.3c0.4-0.3,0.8-0.5,1.2-0.8
			c0.4-0.2,0.8-0.4,1.3-0.6c-0.4-0.2-0.8-0.2-1.2-0.1c-0.4,0.1-0.8,0.3-1.2,0.5c-0.4,0.3-0.7,0.5-0.9,0.8c-0.1,0.2-0.2,0.3-0.2,0.4
			c0,0.1,0,0.1,0.1,0.1s0.2,0,0.3-0.1c0.1,0,0.2-0.1,0.3-0.1C83.6,261.4,83.7,261.3,83.7,261.3z"/>
		<path class="st6" d="M97.9,259.3C98,259.3,98,259.3,97.9,259.3C98,259.3,98,259.4,97.9,259.3c0.1,0.1,0.1,0.1,0.1,0.1
			c-0.2,0.2-0.5,0.5-0.9,0.9c-0.4,0.4-0.9,0.6-1.3,0.8c-0.5,0.2-0.9,0.2-1.2,0c-0.3-0.2-0.5-0.6-0.4-1.1c-0.6,0.6-1.2,1.2-1.7,1.6
			s-0.8,0.8-1.2,1c-0.3,0.2-0.6,0.4-0.9,0.5c-0.3,0.1-0.6,0-0.7-0.3c-0.2-0.4-0.2-0.8,0-1.4c0.2-0.5,0.5-1,0.9-1.5
			c0.4-0.5,0.7-0.8,0.9-1.1c0.2-0.1,0.3-0.2,0.5-0.1s0.3,0.2,0.3,0.3c0.1,0.2,0,0.3-0.1,0.5c-0.3,0.2-0.5,0.5-0.7,0.8
			c-0.2,0.3-0.4,0.6-0.5,0.9c0,0,0,0.1-0.1,0.1c0,0.1-0.1,0.1-0.1,0.2c0,0.1-0.1,0.1-0.1,0.2c0,0.1,0,0.1,0,0.1c0,0,0.1,0,0.2-0.1
			c0.4-0.3,0.8-0.6,1.1-0.9c0,0,0,0,0,0c0.1-0.1,0.2-0.2,0.3-0.3c0.2-0.2,0.5-0.5,0.8-0.7c0.3-0.3,0.6-0.4,0.9-0.6
			c0.3-0.1,0.6-0.1,0.8,0c0.1,0,0.1,0.1,0.2,0.2c0,0.1,0.1,0.1,0.1,0.2c0,0.4,0.1,0.6,0.3,0.6c0.2,0,0.5,0,0.8-0.1
			c0.3-0.1,0.7-0.3,1-0.5C97.5,259.5,97.8,259.4,97.9,259.3z"/>
		<path class="st6" d="M105.6,258.9c0.1,0,0.2,0,0.3,0.1c0.1,0.1,0.1,0.2,0.1,0.3c0,0.1-0.1,0.2-0.1,0.2c-0.2,0.2-0.6,0.4-1.1,0.7
			c-0.5,0.3-1.1,0.6-1.7,0.9c-0.6,0.3-1.2,0.4-1.7,0.4c-0.5,0-0.7-0.3-0.7-0.8c0,0,0,0,0,0c-0.4,0.3-0.8,0.7-1.2,1.1
			c-0.4,0.4-0.9,0.7-1.3,0.9c-0.4,0.2-0.8,0.4-1.1,0.3c-0.3,0-0.6-0.3-0.7-0.7c-0.1-0.5,0-1,0.2-1.5c0.3-0.5,0.7-0.9,1.2-1.3
			c0.5-0.4,1-0.6,1.6-0.7c0.6-0.1,1.1,0,1.5,0.2c0.1,0.1,0.2,0.2,0.2,0.3c0,0,0.1,0,0.1-0.1c0,0,0.1-0.1,0.1-0.1
			c0.1,0,0.2-0.1,0.3,0c0.1,0,0.2,0.1,0.3,0.2c0.1,0.1,0.1,0.2,0,0.3c-0.2,0.4-0.1,0.7,0.1,0.8c0.2,0.1,0.5,0.1,0.9-0.1
			s0.8-0.3,1.2-0.5S104.8,259.3,105.6,258.9z M97.3,261.5c-0.1,0.2,0,0.4,0,0.4s0.2,0,0.4-0.2c0.2-0.1,0.6-0.4,1.1-0.8
			c0.5-0.4,0.9-0.7,1.2-1.1c-0.4-0.1-0.7-0.1-1.1,0c-0.4,0.1-0.7,0.4-1,0.7C97.5,260.9,97.3,261.2,97.3,261.5z"/>
		<path class="st6" d="M111.9,259.3c0.1,0,0.2-0.1,0.3,0c0.1,0,0.2,0.1,0.2,0.2c0,0.1,0,0.1-0.1,0.2c-0.9,0.6-1.8,1.1-2.9,1.7
			c-1.1,0.6-2,1-2.8,1.4c-0.3,0.1-0.6,0.2-1,0.4c-0.4,0.1-0.7,0.2-1.1,0.2c-0.4,0-0.7-0.1-0.9-0.4c-0.4-0.4-0.5-0.9-0.4-1.4
			c0.1-0.5,0.4-1,0.8-1.4s0.9-0.8,1.4-1.1c0.5-0.3,1-0.4,1.4-0.3c0.4,0.1,0.7,0.3,0.8,0.8c0,0.2,0,0.4-0.2,0.5
			c-0.1,0.1-0.3,0.2-0.5,0.1c-0.2,0-0.3-0.2-0.4-0.4c0-0.1-0.2-0.1-0.4,0.1c-0.2,0.2-0.5,0.4-0.8,0.7c-0.3,0.3-0.5,0.6-0.7,0.9
			c-0.2,0.3-0.2,0.5-0.2,0.7c0.1,0.2,0.4,0.2,0.8,0.1c0.6-0.1,1.1-0.3,1.6-0.5c0.9-0.4,1.7-0.8,2.3-1.1c0.6-0.3,1.2-0.6,1.9-1
			C111.4,259.6,111.6,259.5,111.9,259.3z"/>
		<path class="st6" d="M119.7,259.4c0.1,0,0.2,0,0.2,0c0.1,0.1,0.1,0.1,0.1,0.2c0,0.1,0,0.2-0.1,0.2c-0.2,0.2-0.6,0.5-1,0.9
			s-1,0.7-1.5,1.1c-0.6,0.3-1.1,0.6-1.6,0.7c-0.5,0.1-0.9,0.1-1.2-0.2c-0.3-0.3-0.4-0.6-0.4-1c0-0.2,0.1-0.4,0.1-0.6
			c0-0.2,0.1-0.3,0.1-0.5c0-0.1,0-0.3,0-0.3s-0.1-0.1-0.2,0c-0.1,0.1-0.3,0.2-0.6,0.5c-0.1,0.1-0.3,0.3-0.4,0.4
			c-0.8,0.8-1.6,1.6-2.4,2.5c-0.8,0.8-1.5,1.8-2.1,2.8c-0.1,0.1-0.2,0.2-0.3,0.2c-0.1,0-0.2,0-0.3-0.1c-0.1-0.1-0.1-0.2-0.1-0.3
			c0,0,0,0,0,0c0,0,0,0,0-0.1c0-0.5,0.2-1,0.4-1.4c0.3-0.5,0.5-0.9,0.8-1.3c0.2-0.2,0.3-0.4,0.4-0.7c1.2-1.8,2.4-3.7,3.6-5.5
			c0.5-0.7,1-1.5,1.5-2.3c0.7-1.1,1.4-2.1,2.1-3.1c0.7-1,1.5-2,2.3-3c0.1-0.1,0.2-0.1,0.3-0.1c0.1,0,0.2,0.1,0.3,0.2
			c0.1,0.1,0.1,0.2,0,0.3c-1.4,2-2.7,4-4,6c-0.7,1-1.3,2.1-2,3.1c-0.5,0.7-0.9,1.4-1.4,2.1c0.6-0.6,1.1-1,1.6-1.2
			c0.5-0.2,0.9-0.2,1.3,0.1c0.2,0.2,0.2,0.4,0.2,0.6c0,0.3,0,0.5-0.1,0.8c0,0.3-0.1,0.5-0.1,0.7c0,0.2,0.1,0.3,0.3,0.3
			c0.2,0,0.5-0.1,0.9-0.3c0.6-0.3,1.3-0.7,1.9-1.1C118.7,260,119.2,259.7,119.7,259.4z"/>
		<path class="st6" d="M135.1,249c0.1,0,0.2,0,0.3,0.1c0.1,0.1,0.1,0.2,0.2,0.3c0,0.1,0,0.2-0.1,0.4c-2.7,3.2-5.2,6.5-7.5,10
			c-0.8,1.3-1.6,2.6-2.3,4c-0.8,1.6-1.8,3.2-2.8,4.6c-0.1,0.1-0.1,0.1-0.2,0.1c-0.1,0-0.1,0-0.2-0.1c0,0-0.1-0.1-0.1-0.2
			c0.3-1.5,0.9-3.1,1.8-4.5c0.9-1.5,1.8-2.9,2.8-4.2c0.3-0.4,0.5-0.7,0.7-1.1c0.4-0.6,0.9-1.2,1.2-1.8c0.4-0.5,0.8-1.1,1.3-1.8
			c-1.4,1.4-2.8,2.8-4.3,4.1c-1.5,1.3-2.8,2.4-4,3.2c-1.2,0.8-2.1,1.2-2.8,1.1c-0.6-0.2-1-0.5-1-0.9c-0.1-0.4,0-0.8,0.2-1.3
			c0.2-0.5,0.5-0.9,0.9-1.4c0.3-0.4,0.6-0.7,0.9-1c0.2-0.2,0.3-0.2,0.5-0.1c0.2,0.1,0.3,0.2,0.4,0.4c0.1,0.2,0,0.3-0.1,0.5
			c-0.1,0.1-0.2,0.2-0.3,0.3c-0.3,0.3-0.6,0.6-0.9,1c-0.3,0.4-0.4,0.7-0.5,1.1c-0.1,0.6,0.2,0.8,0.9,0.5c0.7-0.3,1.6-0.9,2.8-1.8
			c1.2-0.9,2.4-2,3.8-3.2c1.3-1.2,2.7-2.5,3.9-3.7c1.3-1.3,2.3-2.4,3.2-3.4c0.3-0.4,0.7-0.8,1-1.2c0,0,0.1-0.1,0.1-0.1
			C135,249,135,249,135.1,249z M121.3,258.2c-0.1-0.1-0.2-0.2-0.2-0.3c0-0.1-0.1-0.2,0-0.3c0.1-0.2,0.2-0.4,0.4-0.5
			c0.2-0.1,0.4-0.1,0.6,0c0.2,0.1,0.3,0.3,0.3,0.5c0,0.2,0,0.4-0.2,0.6c-0.1,0.1-0.3,0.2-0.5,0.2
			C121.6,258.3,121.5,258.3,121.3,258.2z"/>
		<path class="st6" d="M137.2,259.6c-1,1-2.2,1.9-3.4,2.6c-0.4,0.2-0.9,0.5-1.4,0.7c-0.5,0.2-1,0.2-1.5,0.1
			c-0.4-0.1-0.7-0.3-0.9-0.6c-0.2-0.3-0.3-0.6-0.3-1s0.1-0.7,0.3-1.1c0.1-0.2,0.3-0.4,0.5-0.7c0.2-0.3,0.5-0.5,0.8-0.7
			c0.3-0.2,0.6-0.3,0.9-0.3c0.3,0,0.6,0.1,0.8,0.4c0.2,0.3,0.2,0.7-0.1,1.2c-0.2,0.4-0.6,0.8-1,1.1c-0.4,0.3-0.8,0.5-1.2,0.6
			c0.1,0.3,0.4,0.4,0.8,0.3c0.4-0.1,0.9-0.2,1.4-0.5c0.5-0.3,1.1-0.6,1.6-0.9c0.5-0.3,1-0.6,1.4-0.9c0.4-0.3,0.7-0.5,0.8-0.6
			c0.1-0.1,0.2-0.1,0.3,0c0.1,0,0.1,0.1,0.2,0.2C137.3,259.5,137.2,259.5,137.2,259.6z M131.6,259.9c-0.3,0.2-0.6,0.5-0.8,0.9
			c0.2-0.1,0.5-0.2,0.7-0.4c0.3-0.2,0.4-0.4,0.4-0.5c0-0.1,0-0.2,0-0.1C131.8,259.8,131.7,259.8,131.6,259.9z"/>
		<path class="st6" d="M143.6,259.8c-1,0.3-1.9,0.7-2.7,1.1s-1.7,0.9-2.5,1.5c0.2,0.3,0.2,0.5,0.2,0.9c0,0.8-0.4,1.4-1,1.9
			c-0.2,0.2-0.5,0.3-0.8,0.5c-0.3,0.2-0.7,0.4-1.1,0.5c-0.4,0.1-0.7,0.1-1,0.1c-0.3-0.1-0.5-0.3-0.6-0.7c-0.1-0.4,0-0.8,0.3-1.1
			c0.3-0.4,0.7-0.7,1.1-1.1c0.4-0.3,0.8-0.6,1.1-0.8c0.1,0,0.1-0.1,0.2-0.1c0,0-0.1-0.1-0.1-0.1c-0.2-0.2-0.3-0.5-0.5-0.7
			c-0.1-0.2-0.2-0.5-0.2-0.8c-0.1-0.6,0.1-1.1,0.5-1.5c0.4-0.4,0.8-0.7,1.3-0.8c0.2-0.1,0.4,0,0.5,0.1c0.1,0.1,0.2,0.3,0.2,0.4
			c0,0.2-0.1,0.3-0.2,0.5c-0.4,0.3-0.6,0.6-0.7,0.8c-0.1,0.2-0.1,0.5,0,0.7c0.1,0.2,0.2,0.4,0.4,0.7c1-0.6,1.9-1,2.7-1.4
			c0.9-0.4,1.8-0.7,2.9-1.1c0.1,0,0.2,0,0.3,0.1c0.1,0.1,0.1,0.2,0.1,0.3C143.8,259.7,143.7,259.8,143.6,259.8z M137,264.4
			c0.3-0.3,0.5-0.5,0.5-0.8c0-0.2,0-0.4-0.1-0.6c-0.4,0.3-0.8,0.6-1.2,0.9c0,0-0.1,0.1-0.1,0.1c-0.2,0.2-0.5,0.4-0.7,0.6
			c-0.5,0.5-0.4,0.7,0.2,0.5C136.2,264.9,136.6,264.7,137,264.4z"/>
	</g>
</g>
</svg>
